<?xml version="1.0" encoding="utf-8"?>
<!-- Generator: Adobe Illustrator 17.1.0, SVG Export Plug-In . SVG Version: 6.00 Build 0)  -->
<!DOCTYPE svg PUBLIC "-//W3C//DTD SVG 1.1//EN" "http://www.w3.org/Graphics/SVG/1.1/DTD/svg11.dtd">
<svg version="1.1" id="Layer_1" xmlns="http://www.w3.org/2000/svg" xmlns:xlink="http://www.w3.org/1999/xlink" x="0px" y="0px"
	 viewBox="0 0 203.9 77.6" enable-background="new 0 0 203.9 77.6" xml:space="preserve">
<g>
	<path fill="#A9943E" d="M35,37.3c-1.8,1.7-4,2.6-6.5,2.6H26V16.5h-5V56h5V44.3h2.5c2.6,0,4.8,0.9,6.6,2.6c1.8,1.7,2.7,3.9,2.7,6.4
		V56h5v-2.7c0-2.6-0.7-5-2-7c-1.3-2-3.1-3.4-5.2-4.2c2-0.5,3.7-1.9,5.1-4c1.4-2.1,2.1-4.5,2.1-7v-2.4h-5v2.4
		C37.7,33.5,36.8,35.6,35,37.3L35,37.3z M67.3,35.5c1.9,1.9,2.9,4.2,2.9,6.9V56h5V42.4c0-4-1.4-7.4-4.3-10.1c-1.4-1.3-2.9-2.3-4.7-3
		c-1.8-0.7-3.7-1-5.6-1c-2,0-3.9,0.3-5.6,1C53,30,51.4,31,50,32.2c-2.9,2.7-4.3,6.1-4.3,10.1c0,4,1.4,7.4,4.3,10.1
		c1.4,1.3,2.9,2.3,4.7,3c1.8,0.7,3.7,1,5.6,1c2.9,0,5.7-0.8,8.2-2.3v-6.6c-0.9,1.4-2.1,2.5-3.6,3.3c-1.4,0.8-3,1.2-4.6,1.2
		c-2.7,0-5-1-6.9-2.9c-1.9-1.9-2.9-4.2-2.9-6.9c0-2.7,1-5,2.9-6.9c1.9-1.9,4.2-2.9,6.9-2.9C63.1,32.6,65.4,33.6,67.3,35.5L67.3,35.5
		z M85.7,56V28.8h-5V56H85.7L85.7,56z M81.2,20.4c-0.6,0.6-0.9,1.2-0.9,2c0,0.8,0.3,1.5,0.9,2.1c0.6,0.6,1.2,0.9,2,0.9
		c0.8,0,1.5-0.3,2.1-0.9c0.6-0.6,0.9-1.3,0.9-2.1c0-0.8-0.3-1.5-0.9-2c-0.6-0.6-1.3-0.9-2.1-0.9C82.4,19.5,81.7,19.8,81.2,20.4
		L81.2,20.4z M91.3,48.5c0,2.2,0.8,4,2.3,5.4c1.5,1.4,3.5,2.1,6,2.1h4.6v-4.4h-4c-1.1,0-2-0.3-2.8-0.9c-0.7-0.6-1.1-1.4-1.1-2.3
		V33.2h7.9v-4.4h-7.9v-7.5h-5V48.5L91.3,48.5z M113,56V28.8h-5V56H113L113,56z M108.4,20.4c-0.6,0.6-0.9,1.2-0.9,2
		c0,0.8,0.3,1.5,0.9,2.1c0.6,0.6,1.2,0.9,2,0.9c0.8,0,1.5-0.3,2.1-0.9c0.6-0.6,0.9-1.3,0.9-2.1c0-0.8-0.3-1.5-0.9-2
		c-0.6-0.6-1.3-0.9-2.1-0.9C109.7,19.5,109,19.8,108.4,20.4L108.4,20.4z M139.3,35.5c1.9,1.9,2.9,4.2,2.9,6.9V56h5V42.4
		c0-4-1.4-7.4-4.3-10.1c-1.4-1.3-3-2.3-4.7-3c-1.8-0.7-3.7-1-5.7-1c-2,0-3.9,0.3-5.6,1c-1.8,0.7-3.4,1.7-4.7,3
		c-2.9,2.7-4.3,6.1-4.3,10.1c0,4,1.4,7.4,4.3,10.1c1.4,1.3,2.9,2.3,4.7,3c1.8,0.7,3.7,1,5.6,1c2.9,0,5.7-0.8,8.2-2.3v-6.6
		c-0.9,1.4-2.1,2.5-3.6,3.3c-1.4,0.8-3,1.2-4.6,1.2c-2.7,0-5-1-6.9-2.9c-1.9-1.9-2.9-4.2-2.9-6.9c0-2.7,1-5,2.9-6.9
		c1.9-1.9,4.2-2.9,6.9-2.9C135.1,32.6,137.4,33.6,139.3,35.5L139.3,35.5z M165.8,37.3c-1.8,1.7-4,2.6-6.5,2.6h-2.5V16.5h-5V56h5
		V44.3h2.5c2.6,0,4.8,0.9,6.6,2.6c1.8,1.7,2.7,3.9,2.7,6.4V56h5v-2.7c0-2.6-0.7-5-2-7c-1.3-2-3.1-3.4-5.2-4.2c2-0.5,3.7-1.9,5.1-4
		c1.4-2.1,2.1-4.5,2.1-7v-2.4h-5v2.4C168.5,33.5,167.6,35.6,165.8,37.3L165.8,37.3z M183.3,56V28.8h-5V56H183.3L183.3,56z
		 M178.7,20.4c-0.6,0.6-0.9,1.2-0.9,2c0,0.8,0.3,1.5,0.9,2.1c0.6,0.6,1.2,0.9,2,0.9c0.8,0,1.5-0.3,2.1-0.9c0.6-0.6,0.9-1.3,0.9-2.1
		c0-0.8-0.3-1.5-0.9-2c-0.6-0.6-1.3-0.9-2.1-0.9C180,19.5,179.3,19.8,178.7,20.4L178.7,20.4z"/>
</g>
</svg>
