<?xml version="1.0" encoding="UTF-8"?>
<svg width="70px" height="70px" viewBox="0 0 70 70" version="1.1" xmlns="http://www.w3.org/2000/svg" xmlns:xlink="http://www.w3.org/1999/xlink">
    <!-- Generator: Sketch 49 (51002) - http://www.bohemiancoding.com/sketch -->
    <title>music player</title>
    <desc>Created with Sketch.</desc>
    <defs></defs>
    <g id="Page-1" stroke="none" stroke-width="1" fill="none" fill-rule="evenodd">
        <g id="icon" transform="translate(-124.000000, -111.000000)">
            <g id="music-player" transform="translate(125.000000, 112.000000)">
                <circle id="Oval" stroke="#880303" fill="#FFFFFF" cx="34" cy="34" r="34"></circle>
                <g transform="translate(0.000000, 12.000000)" fill="#880303" fill-rule="nonzero" id="Shape">
                    <path d="M50.66,0.249 C50.444,0.06 50.159,-0.026 49.871,0.008 L18.871,4.019 C18.373,4.084 18,4.507 18,5.01 L18,11.027 L18,15.239 L18,40.623 C16.174,38.428 13.273,37 10,37 C4.486,37 0,41.037 0,46 C0,50.963 4.486,55 10,55 C15.514,55 20,50.963 20,46 C20,45.768 19.981,45.54 19.961,45.313 C19.974,45.248 20,45.189 20,45.121 L20,16.118 L49,12.365 L49,30.622 C47.174,28.428 44.273,27 41,27 C35.486,27 31,31.037 31,36 C31,40.963 35.486,45 41,45 C46.464,45 50.913,41.034 50.993,36.133 C50.993,36.12 51,36.109 51,36.096 L51,11.227 L51,7.016 L51,1 C51,0.712 50.876,0.438 50.66,0.249 Z"></path>
                </g>
            </g>
        </g>
    </g>
</svg>